<svg width="358" height="358" viewBox="0 0 358 358" fill="none" xmlns="http://www.w3.org/2000/svg">
<path d="M179 29.8334C159.411 29.8334 140.014 33.6917 121.916 41.188C103.819 48.6843 87.3746 59.6719 73.5232 73.5233C45.549 101.497 29.8333 139.439 29.8333 179C29.8333 244.932 72.6441 300.869 131.863 320.708C139.322 321.902 141.708 317.278 141.708 313.25V288.041C100.389 296.991 91.5883 268.053 91.5883 268.053C84.7266 250.749 75.0308 246.125 75.0308 246.125C61.4566 236.877 76.075 237.175 76.075 237.175C90.9916 238.219 98.8975 252.539 98.8975 252.539C111.875 275.213 133.802 268.5 142.305 264.92C143.647 255.224 147.526 248.661 151.702 244.932C118.587 241.203 83.8316 228.374 83.8316 171.542C83.8316 154.984 89.5 141.708 99.1958 131.118C97.7041 127.388 92.4833 111.875 100.687 91.7375C100.687 91.7375 113.217 87.71 141.708 106.953C153.492 103.671 166.321 102.03 179 102.03C191.679 102.03 204.507 103.671 216.292 106.953C244.782 87.71 257.312 91.7375 257.312 91.7375C265.517 111.875 260.296 127.388 258.804 131.118C268.5 141.708 274.168 154.984 274.168 171.542C274.168 228.523 239.263 241.053 205.999 244.783C211.369 249.407 216.292 258.506 216.292 272.378V313.25C216.292 317.278 218.678 322.051 226.286 320.708C285.505 300.72 328.167 244.932 328.167 179C328.167 159.411 324.308 140.014 316.812 121.916C309.316 103.819 298.328 87.3747 284.477 73.5233C270.625 59.6719 254.181 48.6843 236.084 41.188C217.986 33.6917 198.589 29.8334 179 29.8334Z" fill="black"/>
</svg>
