<svg width="70" height="70" viewBox="0 0 70 70" fill="none" xmlns="http://www.w3.org/2000/svg">
<path d="M35 5.83325C31.1698 5.83325 27.377 6.58767 23.8384 8.05343C20.2997 9.51919 17.0844 11.6676 14.376 14.376C8.90622 19.8458 5.83331 27.2644 5.83331 34.9999C5.83331 47.8916 14.2041 58.8291 25.7833 62.7082C27.2416 62.9416 27.7083 62.0374 27.7083 61.2499V56.3207C19.6291 58.0707 17.9083 52.4124 17.9083 52.4124C16.5666 49.0291 14.6708 48.1249 14.6708 48.1249C12.0166 46.3166 14.875 46.3749 14.875 46.3749C17.7916 46.5791 19.3375 49.3791 19.3375 49.3791C21.875 53.8124 26.1625 52.4999 27.825 51.7999C28.0875 49.9041 28.8458 48.6208 29.6625 47.8916C23.1875 47.1624 16.3916 44.6541 16.3916 33.5416C16.3916 30.3041 17.5 27.7083 19.3958 25.6374C19.1041 24.9083 18.0833 21.8749 19.6875 17.9374C19.6875 17.9374 22.1375 17.1499 27.7083 20.9124C30.0125 20.2708 32.5208 19.9499 35 19.9499C37.4791 19.9499 39.9875 20.2708 42.2916 20.9124C47.8625 17.1499 50.3125 17.9374 50.3125 17.9374C51.9166 21.8749 50.8958 24.9083 50.6041 25.6374C52.5 27.7083 53.6083 30.3041 53.6083 33.5416C53.6083 44.6833 46.7833 47.1332 40.2791 47.8624C41.3291 48.7666 42.2916 50.5457 42.2916 53.2583V61.2499C42.2916 62.0374 42.7583 62.9707 44.2458 62.7082C55.825 58.7999 64.1666 47.8916 64.1666 34.9999C64.1666 31.1697 63.4122 27.377 61.9465 23.8383C60.4807 20.2997 58.3323 17.0843 55.6239 14.376C52.9156 11.6676 49.7002 9.51919 46.1616 8.05343C42.6229 6.58767 38.8302 5.83325 35 5.83325Z" fill="#E6E6E6"/>
</svg>
