<svg width="69" height="69" viewBox="0 0 69 69" fill="none" xmlns="http://www.w3.org/2000/svg">
<path fill-rule="evenodd" clip-rule="evenodd" d="M34.5 11.9312C31.0759 11.9312 27.0825 12.0117 23.1897 12.1209L23.0316 12.1267C19.0699 12.2388 15.8729 12.3279 13.3544 12.7448C10.7295 13.1789 8.55025 14.0098 6.808 15.8009C5.06 17.5978 4.29812 19.8202 3.93875 22.4795C3.59375 25.0383 3.59375 28.2813 3.59375 32.312V36.6935C3.59375 40.7185 3.59375 43.9615 3.93875 46.5232C4.29525 49.1825 5.06 51.4049 6.808 53.2018C8.55025 54.9958 10.7295 55.8238 13.3544 56.2579C15.8729 56.6748 19.0699 56.7639 23.0316 56.876L23.1897 56.8818C27.0854 56.991 31.0759 57.0715 34.5 57.0715C37.9241 57.0715 41.9175 56.991 45.8102 56.8818L45.9684 56.876C49.9301 56.7639 53.1271 56.6748 55.6456 56.2579C58.2705 55.8238 60.4497 54.9929 62.192 53.2018C63.94 51.4049 64.7047 49.1825 65.0612 46.5232C65.4062 43.9644 65.4062 40.7214 65.4062 36.6907V32.3092C65.4062 28.2813 65.4062 25.0383 65.0612 22.4795C64.7047 19.8202 63.94 17.5978 62.192 15.8009C60.4497 14.0069 58.2705 13.1789 55.6456 12.7448C53.1271 12.3279 49.9301 12.2388 45.9655 12.1267L45.8102 12.1209C42.0412 12.0065 38.2708 11.9432 34.5 11.9312ZM31.257 42.1215C30.9291 42.3088 30.5578 42.4067 30.1802 42.4054C29.8026 42.4042 29.432 42.3038 29.1054 42.1143C28.7788 41.9248 28.5077 41.6528 28.3191 41.3256C28.1306 40.9984 28.0314 40.6275 28.0312 40.2499V28.7499C28.0314 28.3723 28.1306 28.0014 28.3191 27.6742C28.5077 27.347 28.7788 27.075 29.1054 26.8855C29.432 26.696 29.8026 26.5956 30.1802 26.5944C30.5578 26.5931 30.9291 26.691 31.257 26.8783L41.3195 32.6283C41.6493 32.8169 41.9234 33.0894 42.114 33.4181C42.3046 33.7467 42.405 34.12 42.405 34.4999C42.405 34.8799 42.3046 35.2531 42.114 35.5817C41.9234 35.9104 41.6493 36.1829 41.3195 36.3715L31.257 42.1215Z" fill="#E6E6E6"/>
</svg>
